<?xml version="1.0" encoding="UTF-8"?>
<svg version="1.1" xmlns="http://www.w3.org/2000/svg" width="454" height="90">
<path d="M0 0 C2 1 2 1 3 3 C3.51981506 6.56444611 3.63102777 9.73794446 2 13 C-1.26205554 14.63102777 -4.43555389 14.51981506 -8 14 C-10 13 -10 13 -11 11 C-11.51981506 7.43555389 -11.63102777 4.26205554 -10 1 C-6.73794446 -0.63102777 -3.56444611 -0.51981506 0 0 Z M-6 3 C-7.01540112 7.10223585 -7.01540112 7.10223585 -6 11 C-4.68 11 -3.36 11 -2 11 C-1.32198966 8.09926819 -1.32198966 8.09926819 -1 5 C-1.66 4.34 -2.32 3.68 -3 3 C-3.99 3 -4.98 3 -6 3 Z " fill="#FEFEFE" transform="translate(215,23)"/>
<path d="M0 0 C7.71484375 -0.09765625 7.71484375 -0.09765625 10 0 C11 1 11 1 11 4.75 C10.9896875 5.46671875 10.979375 6.1834375 10.96875 6.921875 C11.00558125 9.37115342 11.40670669 11.62682678 12 14 C10.35 13.67 8.7 13.34 7 13 C6.67 12.01 6.34 11.02 6 10 C5.34 9.67 4.68 9.34 4 9 C4 10.65 4 12.3 4 14 C2.68 14 1.36 14 0 14 C0 9.38 0 4.76 0 0 Z M4 3 C4 3.99 4 4.98 4 6 C4.99 5.67 5.98 5.34 7 5 C7 4.34 7 3.68 7 3 C6.01 3 5.02 3 4 3 Z " fill="#FEFEFE" transform="translate(309,23)"/>
<path d="M0 0 C7.71484375 -0.09765625 7.71484375 -0.09765625 10 0 C11 1 11 1 11 4.75 C10.9896875 5.46671875 10.979375 6.1834375 10.96875 6.921875 C11.00558125 9.37115342 11.40670669 11.62682678 12 14 C10.35 13.67 8.7 13.34 7 13 C6.67 12.01 6.34 11.02 6 10 C5.34 9.67 4.68 9.34 4 9 C4 10.65 4 12.3 4 14 C2.68 14 1.36 14 0 14 C0 9.38 0 4.76 0 0 Z M4 3 C4 3.99 4 4.98 4 6 C4.99 5.67 5.98 5.34 7 5 C7 4.34 7 3.68 7 3 C6.01 3 5.02 3 4 3 Z " fill="#FEFEFE" transform="translate(221,23)"/>
<path d="M0 0 C1.65 0 3.3 0 5 0 C6.8125 2.5 6.8125 2.5 8 5 C8.33 3.35 8.66 1.7 9 0 C9.99 0 10.98 0 12 0 C12 4.62 12 9.24 12 14 C7 13 7 13 5.1875 10.4375 C4.795625 9.633125 4.40375 8.82875 4 8 C3.67 9.98 3.34 11.96 3 14 C2.01 14 1.02 14 0 14 C0 9.38 0 4.76 0 0 Z " fill="#FEFEFE" transform="translate(176,23)"/>
<path d="M0 0 C1.65 0 3.3 0 5 0 C6.8125 2.5 6.8125 2.5 8 5 C8.33 3.35 8.66 1.7 9 0 C9.99 0 10.98 0 12 0 C12 4.62 12 9.24 12 14 C7 13 7 13 5.1875 10.4375 C4.795625 9.633125 4.40375 8.82875 4 8 C3.67 9.98 3.34 11.96 3 14 C2.01 14 1.02 14 0 14 C0 9.38 0 4.76 0 0 Z " fill="#FEFEFE" transform="translate(132,23)"/>
<path d="M0 0 C1.65 0 3.3 0 5 0 C6.86540627 4.70406799 8.36843005 8.94744036 9 14 C7.68 14 6.36 14 5 14 C4.67 13.34 4.34 12.68 4 12 C1.97536745 11.34786708 1.97536745 11.34786708 0 11 C0 11.99 0 12.98 0 14 C-1.32 14 -2.64 14 -4 14 C-3.71572583 12.41532272 -3.42225182 10.8322943 -3.125 9.25 C-2.96257812 8.36828125 -2.80015625 7.4865625 -2.6328125 6.578125 C-2.03203736 4.13052256 -1.22002883 2.19400143 0 0 Z M2 5 C1.67 5.99 1.34 6.98 1 8 C1.66 8 2.32 8 3 8 C2.67 7.01 2.34 6.02 2 5 Z " fill="#FEFEFE" transform="translate(258,23)"/>
<path d="M0 0 C3.3 0 6.6 0 10 0 C10 0.99 10 1.98 10 3 C8.02 3 6.04 3 4 3 C4 3.66 4 4.32 4 5 C5.98 5 7.96 5 10 5 C10 5.99 10 6.98 10 8 C8.02 8 6.04 8 4 8 C4 8.99 4 9.98 4 11 C5.98 11 7.96 11 10 11 C10 11.99 10 12.98 10 14 C6.7 14 3.4 14 0 14 C0 9.38 0 4.76 0 0 Z " fill="#FEFEFE" transform="translate(296,23)"/>
<path d="M0 0 C3.3 0 6.6 0 10 0 C10 0.99 10 1.98 10 3 C8.02 3 6.04 3 4 3 C4 3.66 4 4.32 4 5 C5.98 5 7.96 5 10 5 C10 5.99 10 6.98 10 8 C8.02 8 6.04 8 4 8 C4 8.99 4 9.98 4 11 C5.98 11 7.96 11 10 11 C10 11.99 10 12.98 10 14 C6.7 14 3.4 14 0 14 C0 9.38 0 4.76 0 0 Z " fill="#FEFEFE" transform="translate(163,23)"/>
<path d="M0 0 C1.32 0 2.64 0 4 0 C4.99 1.98 5.98 3.96 7 6 C7.66 4.02 8.32 2.04 9 0 C10.65 0 12.3 0 14 0 C12.35 4.62 10.7 9.24 9 14 C7.35 14 5.7 14 4 14 C3.32739649 12.23141309 2.66211605 10.46003984 2 8.6875 C1.62875 7.70136719 1.2575 6.71523438 0.875 5.69921875 C0 3 0 3 0 0 Z " fill="#FEFEFE" transform="translate(147,23)"/>
<path d="M0 0 C-0.66 1.32 -1.32 2.64 -2 4 C-3.32 3.67 -4.64 3.34 -6 3 C-6 3.66 -6 4.32 -6 5 C-5.195625 5.144375 -4.39125 5.28875 -3.5625 5.4375 C-1 6 -1 6 0 7 C0.04080783 8.99958364 0.04254356 11.00045254 0 13 C-2.40545638 14.20272819 -3.94996953 14.10071472 -6.625 14.0625 C-7.85089844 14.04896484 -7.85089844 14.04896484 -9.1015625 14.03515625 C-10.04128906 14.01775391 -10.04128906 14.01775391 -11 14 C-10.34 12.68 -9.68 11.36 -9 10 C-7.35 10.33 -5.7 10.66 -4 11 C-4 10.34 -4 9.68 -4 9 C-5.98 8.34 -7.96 7.68 -10 7 C-10 5.02 -10 3.04 -10 1 C-6.78548731 -0.60725635 -3.56387464 -0.05748185 0 0 Z " fill="#FEFEFE" transform="translate(280,23)"/>
<path d="M0 0 C2.375 -0.125 2.375 -0.125 5 0 C5.66 0.66 6.32 1.32 7 2 C7.33 1.34 7.66 0.68 8 0 C9.65 0 11.3 0 13 0 C12.72285156 0.50789063 12.44570312 1.01578125 12.16015625 1.5390625 C9.9665317 5.7077298 8.47586845 9.24131553 8 14 C6.68 14 5.36 14 4 14 C3.87882813 13.40832031 3.75765625 12.81664062 3.6328125 12.20703125 C2.73255357 7.96196415 1.79543379 3.97560339 0 0 Z " fill="#FEFEFE" transform="translate(234,23)"/>
<path d="M0 0 C3.96 0 7.92 0 12 0 C12 0.99 12 1.98 12 3 C10.68 3 9.36 3 8 3 C8 6.63 8 10.26 8 14 C6.68 14 5.36 14 4 14 C4 10.37 4 6.74 4 3 C2.68 3 1.36 3 0 3 C0 2.01 0 1.02 0 0 Z " fill="#FEFEFE" transform="translate(282,23)"/>
<path d="M0 0 C3.96 0 7.92 0 12 0 C12 0.99 12 1.98 12 3 C10.68 3 9.36 3 8 3 C8 6.63 8 10.26 8 14 C6.68 14 5.36 14 4 14 C4 10.37 4 6.74 4 3 C2.68 3 1.36 3 0 3 C0 2.01 0 1.02 0 0 Z " fill="#FEFEFE" transform="translate(191,23)"/>
<path d="M0 0 C1.32 0 2.64 0 4 0 C4 4.62 4 9.24 4 14 C2.68 14 1.36 14 0 14 C0 9.38 0 4.76 0 0 Z " fill="#FEFEFE" transform="translate(125,23)"/>
</svg>
